  http://www.hotimg.com/direct/5Mby3mY.jpg

Screens:
  
http://www.hotimg.com/direct/yNqR8yA.jpg
  
http://www.hotimg.com/direct/h7ZG7H2.jpg
  
http://www.hotimg.com/direct/RMbV9qD.jpg
  
http://www.hotimg.com/direct/6jqcU8T.jpg

Alternative:
  
http://www.postimg.com/image/50000/photo-49281.jpg
  
http://www.postimg.com/image/50000/photo-49282.jpg
  
http://www.postimg.com/image/50000/photo-49283.jpg
  
http://www.postimg.com/image/50000/photo-49284.jpg

ScreenCaps:
  
http://www.postimg.com/image/50000/photo-49285.jpg

Captain America The First Avenger (2011) DVDRip XviD-MAX
Format                           : AVI
Format/Info                      : Audio Video Interleave
Format profile                   : OpenDML
File size                        : 1.14 GiB
Duration                         : 2h 4mn
Overall bit rate                 : 1 312 Kbps
Writing application              : VirtualDubMod 1.5.10.2 (build 2542/release)
Writing library                  : VirtualDubMod build 2542/release
Original source form             : MAX TORRENTZ
Copyright                        : SIGISMUNT

Video
ID                               : 0
Format                           : MPEG-4 Visual
Format profile                   : AdvancedSimple@L5
Format settings, BVOP            : Yes
Format settings, QPel            : No
Format settings, GMC             : No warppoints
Format settings, Matrix          : Default (H.263)
Muxing mode                      : Packed bitstream
Codec ID                         : XVID
Codec ID/Hint                    : XviD
Duration                         : 2h 4mn
Bit rate                         : 1 116 Kbps
Width                            : 640 pixels
Height                           : 272 pixels
Display aspect ratio             : 2.35:1
Frame rate                       : 23.976 fps
Resolution                       : 24 bits
Colorimetry                      : 4:2:0
Scan type                        : Progressive
Bits/(Pixel*Frame)               : 0.267
Stream size                      : 991 MiB (85%)
Writing library                  : XviD 1.2.1 (UTC 2008-12-04)

Audio
ID                               : 1
Format                           : MPEG Audio
Format version                   : Version 1
Format profile                   : Layer 3
Codec ID                         : 55
Codec ID/Hint                    : MP3
Duration                         : 2h 4mn
Bit rate mode                    : Constant
Bit rate                         : 192 Kbps
Channel(s)                       : 2 channels
Sampling rate                    : 48.0 KHz
Resolution                       : 16 bits
Stream size                      : 171 MiB (15%)
Alignment                        : Aligned on interleaves
Interleave, duration             : 652 ms (15.64 video frames)
Interleave, preload duration     : 216 ms
Writing library                  : LAME3.96.1


PLEASE SEED & ENJOY THE MOVIE - MANY THANKS (Stumpie1971)